<?xml version="1.0" encoding="UTF-8" standalone="no"?>
<!DOCTYPE svg PUBLIC "-//W3C//DTD SVG 1.1//EN" "http://www.w3.org/Graphics/SVG/1.1/DTD/svg11.dtd">
<svg xmlns="http://www.w3.org/2000/svg" version="1.1" width="43px" height="55px" style="shape-rendering:geometricPrecision; text-rendering:geometricPrecision; image-rendering:optimizeQuality; fill-rule:evenodd; clip-rule:evenodd" xmlns:xlink="http://www.w3.org/1999/xlink">
<g><path style="opacity:1" fill="#fafcfc" d="M -0.5,-0.5 C 13.8333,-0.5 28.1667,-0.5 42.5,-0.5C 42.5,1.83333 42.5,4.16667 42.5,6.5C 42.1667,6.5 41.8333,6.5 41.5,6.5C 41.5,5.83333 41.5,5.16667 41.5,4.5C 41.6309,3.62356 41.2975,2.95689 40.5,2.5C 36.5714,5.9576 32.238,8.62427 27.5,10.5C 27.1667,10.5 26.8333,10.5 26.5,10.5C 17.2783,12.5054 9.77832,17.1721 4,24.5C 2.58859,26.6504 1.75526,28.9837 1.5,31.5C 0.833333,32.8333 0.166667,34.1667 -0.5,35.5C -0.5,23.5 -0.5,11.5 -0.5,-0.5 Z"/></g>
<g><path style="opacity:1" fill="#5172a3" d="M 41.5,4.5 C 40.7281,5.69354 39.7281,6.69354 38.5,7.5C 36.8042,7.68535 35.4709,8.51869 34.5,10C 32.1902,10.4966 29.8568,10.6633 27.5,10.5C 32.238,8.62427 36.5714,5.9576 40.5,2.5C 41.2975,2.95689 41.6309,3.62356 41.5,4.5 Z"/></g>
<g><path style="opacity:1" fill="#4470b4" d="M 38.5,7.5 C 36.1328,11.6899 32.4662,13.8565 27.5,14C 27.8346,15.164 27.8346,16.4974 27.5,18C 26.2068,18.49 24.8734,18.6567 23.5,18.5C 23.5,17.5 23.5,16.5 23.5,15.5C 22.1266,15.6567 20.7932,15.49 19.5,15C 22.1867,13.9514 24.52,12.4514 26.5,10.5C 26.8333,10.5 27.1667,10.5 27.5,10.5C 29.8568,10.6633 32.1902,10.4966 34.5,10C 35.4709,8.51869 36.8042,7.68535 38.5,7.5 Z"/></g>
<g><path style="opacity:1" fill="#5280b9" d="M 41.5,4.5 C 41.5,5.16667 41.5,5.83333 41.5,6.5C 41.5,7.16667 41.5,7.83333 41.5,8.5C 39.3311,10.3403 37.9977,12.6737 37.5,15.5C 31.874,15.4579 28.2073,18.1246 26.5,23.5C 22.7894,24.3443 19.1228,25.3443 15.5,26.5C 15.6621,24.4727 15.4955,22.4727 15,20.5C 9.45243,23.3808 5.28576,27.5475 2.5,33C 2.56993,33.7648 2.90326,34.2648 3.5,34.5C 3.16667,35.5 2.5,36.1667 1.5,36.5C 1.5,34.8333 1.5,33.1667 1.5,31.5C 1.75526,28.9837 2.58859,26.6504 4,24.5C 9.77832,17.1721 17.2783,12.5054 26.5,10.5C 24.52,12.4514 22.1867,13.9514 19.5,15C 20.7932,15.49 22.1266,15.6567 23.5,15.5C 23.5,16.5 23.5,17.5 23.5,18.5C 24.8734,18.6567 26.2068,18.49 27.5,18C 27.8346,16.4974 27.8346,15.164 27.5,14C 32.4662,13.8565 36.1328,11.6899 38.5,7.5C 39.7281,6.69354 40.7281,5.69354 41.5,4.5 Z"/></g>
<g><path style="opacity:1" fill="#fbfcfa" d="M 41.5,6.5 C 41.8333,6.5 42.1667,6.5 42.5,6.5C 42.5,22.5 42.5,38.5 42.5,54.5C 28.5,54.5 14.5,54.5 0.5,54.5C 0.878163,52.079 1.54483,49.7457 2.5,47.5C 2.83333,47.5 3.16667,47.5 3.5,47.5C 6.9491,45.3561 10.6158,43.3561 14.5,41.5C 15.2975,41.0431 15.6309,40.3764 15.5,39.5C 21.4377,40.5386 25.771,38.5386 28.5,33.5C 28.8333,32.8333 29.1667,32.1667 29.5,31.5C 30.8333,31.5 31.5,30.8333 31.5,29.5C 32.4959,29.5858 33.3292,29.2524 34,28.5C 34.6811,26.4708 35.0144,24.4708 35,22.5C 34.0053,23.0659 33.172,23.7326 32.5,24.5C 31.8333,24.5 31.5,24.8333 31.5,25.5C 26.6196,26.5955 21.7863,27.9289 17,29.5C 15.9701,29.8361 15.4701,30.5028 15.5,31.5C 14.8333,31.5 14.1667,31.5 13.5,31.5C 8.68008,32.321 5.34674,34.9876 3.5,39.5C 1.59534,41.8804 0.262011,44.5471 -0.5,47.5C -0.5,45.1667 -0.5,42.8333 -0.5,40.5C 1.10422,39.713 1.77089,38.3797 1.5,36.5C 2.5,36.1667 3.16667,35.5 3.5,34.5C 4.5,32.8333 5.83333,31.5 7.5,30.5C 10.0316,29.4043 12.3649,28.0709 14.5,26.5C 14.8333,26.5 15.1667,26.5 15.5,26.5C 19.1228,25.3443 22.7894,24.3443 26.5,23.5C 34.0123,20.9291 39.0123,15.9291 41.5,8.5C 41.5,7.83333 41.5,7.16667 41.5,6.5 Z"/></g>
<g><path style="opacity:1" fill="#5f8dbb" d="M 41.5,8.5 C 39.0123,15.9291 34.0123,20.9291 26.5,23.5C 28.2073,18.1246 31.874,15.4579 37.5,15.5C 37.9977,12.6737 39.3311,10.3403 41.5,8.5 Z"/></g>
<g><path style="opacity:1" fill="#b5993c" d="M 32.5,24.5 C 33.8528,26.1284 33.5195,27.4617 31.5,28.5C 31.5,27.5 31.5,26.5 31.5,25.5C 31.5,24.8333 31.8333,24.5 32.5,24.5 Z"/></g>
<g><path style="opacity:1" fill="#3f6db4" d="M 15.5,26.5 C 15.1667,26.5 14.8333,26.5 14.5,26.5C 10.7779,25.6799 8.44458,27.0132 7.5,30.5C 5.83333,31.5 4.5,32.8333 3.5,34.5C 2.90326,34.2648 2.56993,33.7648 2.5,33C 5.28576,27.5475 9.45243,23.3808 15,20.5C 15.4955,22.4727 15.6621,24.4727 15.5,26.5 Z"/></g>
<g><path style="opacity:1" fill="#566e99" d="M 14.5,26.5 C 12.3649,28.0709 10.0316,29.4043 7.5,30.5C 8.44458,27.0132 10.7779,25.6799 14.5,26.5 Z"/></g>
<g><path style="opacity:1" fill="#e5d1a4" d="M 31.5,29.5 C 31.5,29.1667 31.5,28.8333 31.5,28.5C 33.5195,27.4617 33.8528,26.1284 32.5,24.5C 33.172,23.7326 34.0053,23.0659 35,22.5C 35.0144,24.4708 34.6811,26.4708 34,28.5C 33.3292,29.2524 32.4959,29.5858 31.5,29.5 Z"/></g>
<g><path style="opacity:1" fill="#d19159" d="M 31.5,25.5 C 31.5,26.5 31.5,27.5 31.5,28.5C 25.8571,28.2484 20.5238,29.2484 15.5,31.5C 15.4701,30.5028 15.9701,29.8361 17,29.5C 21.7863,27.9289 26.6196,26.5955 31.5,25.5 Z"/></g>
<g><path style="opacity:1" fill="#dc8e33" d="M 31.5,28.5 C 31.5,28.8333 31.5,29.1667 31.5,29.5C 31.5,30.8333 30.8333,31.5 29.5,31.5C 26.4007,31.0923 24.0674,32.259 22.5,35C 19.9963,35.6976 17.663,36.5309 15.5,37.5C 13.8008,37.3398 12.1341,37.5065 10.5,38C 9.04527,40.2273 7.04527,41.7273 4.5,42.5C 4.3632,37.806 6.69654,35.6393 11.5,36C 12.5822,34.6703 13.2488,33.1703 13.5,31.5C 14.1667,31.5 14.8333,31.5 15.5,31.5C 20.5238,29.2484 25.8571,28.2484 31.5,28.5 Z"/></g>
<g><path style="opacity:1" fill="#cf9c57" d="M 29.5,31.5 C 29.1667,32.1667 28.8333,32.8333 28.5,33.5C 24.4355,35.7458 20.1022,37.4124 15.5,38.5C 15.5,38.1667 15.5,37.8333 15.5,37.5C 17.663,36.5309 19.9963,35.6976 22.5,35C 24.0674,32.259 26.4007,31.0923 29.5,31.5 Z"/></g>
<g><path style="opacity:1" fill="#8ca3c1" d="M 1.5,31.5 C 1.5,33.1667 1.5,34.8333 1.5,36.5C 1.77089,38.3797 1.10422,39.713 -0.5,40.5C -0.5,38.8333 -0.5,37.1667 -0.5,35.5C 0.166667,34.1667 0.833333,32.8333 1.5,31.5 Z"/></g>
<g><path style="opacity:1" fill="#daa053" d="M 13.5,31.5 C 13.2488,33.1703 12.5822,34.6703 11.5,36C 6.69654,35.6393 4.3632,37.806 4.5,42.5C 3.56552,43.5676 3.23219,44.901 3.5,46.5C 3.5,46.8333 3.5,47.1667 3.5,47.5C 3.16667,47.5 2.83333,47.5 2.5,47.5C 2.06178,47.5654 1.72845,47.3988 1.5,47C 2.35468,44.5644 3.02134,42.0644 3.5,39.5C 5.34674,34.9876 8.68008,32.321 13.5,31.5 Z"/></g>
<g><path style="opacity:1" fill="#fdf1dd" d="M 28.5,33.5 C 25.771,38.5386 21.4377,40.5386 15.5,39.5C 15.5,39.1667 15.5,38.8333 15.5,38.5C 20.1022,37.4124 24.4355,35.7458 28.5,33.5 Z"/></g>
<g><path style="opacity:1" fill="#c48348" d="M 15.5,37.5 C 15.5,37.8333 15.5,38.1667 15.5,38.5C 15.5,38.8333 15.5,39.1667 15.5,39.5C 10.5701,40.3538 6.57005,42.6872 3.5,46.5C 3.23219,44.901 3.56552,43.5676 4.5,42.5C 7.04527,41.7273 9.04527,40.2273 10.5,38C 12.1341,37.5065 13.8008,37.3398 15.5,37.5 Z"/></g>
<g><path style="opacity:1" fill="#d5ae72" d="M 3.5,39.5 C 3.02134,42.0644 2.35468,44.5644 1.5,47C 1.72845,47.3988 2.06178,47.5654 2.5,47.5C 1.54483,49.7457 0.878163,52.079 0.5,54.5C 0.166667,54.5 -0.166667,54.5 -0.5,54.5C -0.5,52.1667 -0.5,49.8333 -0.5,47.5C 0.262011,44.5471 1.59534,41.8804 3.5,39.5 Z"/></g>
<g><path style="opacity:1" fill="#fdf0de" d="M 15.5,39.5 C 15.6309,40.3764 15.2975,41.0431 14.5,41.5C 10.6158,43.3561 6.9491,45.3561 3.5,47.5C 3.5,47.1667 3.5,46.8333 3.5,46.5C 6.57005,42.6872 10.5701,40.3538 15.5,39.5 Z"/></g>
</svg>